<svg width="36" height="36" viewBox="0 0 36 36" fill="none" xmlns="http://www.w3.org/2000/svg">
<path d="M22.8495 8.232C21.585 8.175 21.204 8.163 18 8.163C14.796 8.163 14.4165 8.175 13.152 8.232C9.897 8.3805 8.3805 9.9225 8.2335 13.1505C8.175 14.4165 8.1615 14.796 8.1615 18C8.1615 21.204 8.175 21.5835 8.232 22.8495C8.3805 26.0715 9.891 27.6195 13.1505 27.768C14.415 27.825 14.796 27.8385 18 27.8385C21.2055 27.8385 21.585 27.8265 22.8495 27.7695C26.1045 27.621 27.6195 26.076 27.768 22.851C27.825 21.585 27.837 21.2055 27.837 18.0015C27.837 14.7975 27.825 14.418 27.768 13.1535C27.6195 9.924 26.1015 8.3805 22.8495 8.232ZM18 24.162C14.5965 24.162 11.838 21.4035 11.838 18C11.838 14.5965 14.598 11.838 18 11.838C21.402 11.838 24.162 14.5965 24.162 18C24.162 21.4035 21.4035 24.162 18 24.162ZM24.4065 13.035C23.6115 13.035 22.9665 12.39 22.9665 11.595C22.9665 10.8 23.6115 10.155 24.4065 10.155C25.2015 10.155 25.8465 10.8 25.8465 11.595C25.8465 12.39 25.2015 13.035 24.4065 13.035ZM22.0005 18C22.0005 20.2095 20.2095 22.0005 18 22.0005C15.7905 22.0005 13.9995 20.2095 13.9995 18C13.9995 15.7905 15.7905 13.9995 18 13.9995C20.2095 13.9995 22.0005 15.7905 22.0005 18ZM28.5 0H7.5C3.3585 0 0 3.3585 0 7.5V28.5C0 32.6415 3.3585 36 7.5 36H28.5C32.643 36 36 32.6415 36 28.5V7.5C36 3.3585 32.643 0 28.5 0ZM29.928 22.947C29.73 27.3105 27.3015 29.7285 22.9485 29.928C21.6675 29.9865 21.2595 30 18 30C14.7405 30 14.334 29.9865 13.053 29.928C8.691 29.7285 6.273 27.306 6.072 22.947C6.0135 21.6675 6 21.2595 6 18C6 14.742 6.0135 14.3325 6.072 13.053C6.273 8.691 8.694 6.2715 13.053 6.0735C14.334 6.0135 14.7405 6 18 6C21.2595 6 21.6675 6.0135 22.9485 6.072C27.3105 6.2715 29.733 8.6985 29.928 13.0515C29.9865 14.3325 30 14.742 30 18C30 21.2595 29.9865 21.6675 29.928 22.947Z" fill="black"/>
</svg>
