<svg width="36" height="36" viewBox="0 0 24 20" fill="none" xmlns="http://www.w3.org/2000/svg">
<path fill-rule="evenodd" clip-rule="evenodd" d="M18.384 19.779C18.706 20.007 19.121 20.064 19.491 19.924C19.861 19.783 20.133 19.467 20.215 19.084C21.084 15 23.192 4.663 23.983 0.947996C24.043 0.667996 23.943 0.376996 23.723 0.189996C23.503 0.0029957 23.198 -0.0510044 22.926 0.0499956C18.733 1.602 5.82 6.44699 0.542001 8.39999C0.207001 8.52399 -0.0109989 8.846 1.12521e-06 9.199C0.0120011 9.553 0.250001 9.86 0.593001 9.963C2.96 10.671 6.067 11.656 6.067 11.656C6.067 11.656 7.519 16.041 8.276 18.271C8.371 18.551 8.59 18.771 8.879 18.847C9.167 18.922 9.475 18.843 9.69 18.64C10.906 17.492 12.786 15.717 12.786 15.717C12.786 15.717 16.358 18.336 18.384 19.779ZM7.374 11.102L9.053 16.64L9.426 13.133C9.426 13.133 15.913 7.282 19.611 3.947C19.719 3.849 19.734 3.685 19.644 3.57C19.555 3.455 19.391 3.428 19.268 3.506C14.982 6.243 7.374 11.102 7.374 11.102Z" fill="black"/>
</svg>
