<svg width="259" height="34" viewBox="0 0 259 34" fill="none" xmlns="http://www.w3.org/2000/svg">
<path d="M6.43254 2.30521C69.9505 3.3227 132.202 4.5603 252.098 5.93826M6.80732 1.9642C92.0334 4.60415 177.747 6.65344 251.944 5.47802M252.29 5.83248C254.388 6.07367 257.479 6.74738 256.407 9.31955M253.117 4.91838C254.307 6.36352 255.958 7.95341 257.915 10.0544M257.76 9.1188C255.49 14.8685 255.045 18.0935 256.156 28.6818M256.829 10.0636C256.187 13.7751 255.998 18.2977 256.158 28.1656M256.256 28.4896C255.563 30.5527 255.353 32.7455 250.752 32.0942M257.081 29.557C256.697 31.0701 254.712 31.2283 251.317 32.0609M251.665 32.5805C190.395 32.6323 128.064 30.5393 5.47569 27.5647M251.431 32.3893C165.717 32.5387 79.8792 31.472 6.10893 28.1181M5.96332 28.2006C2.84465 28.1804 1.84502 26.6273 2.54453 23.6125M6.20383 27.6984C4.15313 28.2095 1.1291 25.6987 2.39033 24.1554M2.73452 23.5567C1.71484 19.5957 1.81822 16.3379 1.89669 5.62M1.2511 24.4668C1.63411 17.0478 1.22805 10.2389 2.61024 5.21447M1.99661 5.54354C2.53135 3.73008 3.6901 2.56148 5.37584 2.76313M1.14342 5.64872C0.812335 3.56121 3.54226 2.17029 7.76516 1.57635" stroke="black" stroke-width="2"/>
</svg>
